# xmcd
#
# Track frame offsets:
#	150
#	16382
#	29887
#	42350
#	57250
#	70457
#	83830
#	96765
#	112092
#	123507
#	136992
#	152020
#	165832
#	177912
#	188832
#	202497
#	215167
#	228207
#	240400
#	250565
#	262980
#	277417
#	288732
#	302237
#
# Disc length: 4212 seconds
#
# Revision: 2
# Processed by: cddbd v1.4PL0 Copyright (c) Steve Scherf et al.
# Submitted via: Gronk 1.4
#
DISCID=6b107218
DTITLE=Slim Dusty - Regal Zonophone Collection, Disc 2
DYEAR=1900
DGENRE=country
TTITLE0=When The Sun Goes Down Outback
TTITLE1=When The Harvest Days Are Over, Jessie Dear
TTITLE2=Rusty, It's Goodbye
TTITLE3=Losin' My Blues Tonight
TTITLE4=Rose Of Remembrance
TTITLE5=The Rain Still Tumbles Down
TTITLE6=When I First Saw The Lovelight In Your Eyes
TTITLE7=I Must Have Good Terbaccy When I Smoke
TTITLE8=Baby Of My Dreams
TTITLE9=Goldy Girl
TTITLE10=The Sunlander
TTITLE11=The Showman's Song
TTITLE12=The Bushland Boogie
TTITLE13=Any Old Time
TTITLE14=Lover's Lament
TTITLE15=Frankie And Johnny
TTITLE16=If I Only Had A Home Sweet Home
TTITLE17=The Broken Home
TTITLE18=Take My Worries Away
TTITLE19=The Swagman's Story
TTITLE20=Mother
TTITLE21=Our Wedding Waltz
TTITLE22=A Little Girl Dressed In Blue
TTITLE23=Old Love Letters
EXTD=
EXTT0=
EXTT1=
EXTT2=
EXTT3=
EXTT4=
EXTT5=
EXTT6=
EXTT7=
EXTT8=
EXTT9=
EXTT10=
EXTT11=
EXTT12=
EXTT13=
EXTT14=
EXTT15=
EXTT16=
EXTT17=
EXTT18=
EXTT19=
EXTT20=
EXTT21=
EXTT22=
EXTT23=
PLAYORDER=
